<?xml version="1.0" encoding="utf-8"?>
<!-- Generator: Adobe Illustrator 27.5.0, SVG Export Plug-In . SVG Version: 6.00 Build 0)  -->
<svg version="1.1" xmlns="http://www.w3.org/2000/svg" xmlns:xlink="http://www.w3.org/1999/xlink" x="0px" y="0px"
	 viewBox="0 0 500 500" style="enable-background:new 0 0 500 500;" xml:space="preserve">
<g id="Background_Simple_1_">
	<g>
		<g>
			<path style="fill:#92E3A9;" d="M414.16,454.45c-0.54,0.33-1.09,0.65-1.64,0.97c-0.51,0.29-1.02,0.58-1.53,0.86
				c-0.53,0.3-1.06,0.59-1.6,0.88c-0.54,0.29-1.08,0.57-1.62,0.85c-0.54,0.28-1.08,0.56-1.62,0.83c-0.55,0.27-1.09,0.54-1.64,0.81
				c-0.55,0.26-1.1,0.52-1.65,0.78c-0.55,0.25-1.1,0.5-1.66,0.75c-0.66,0.3-1.33,0.59-2,0.87c-0.67,0.29-1.34,0.57-2.01,0.84
				c-1.35,0.55-2.71,1.08-4.07,1.58c-0.53,0.2-1.06,0.39-1.59,0.58c-0.21,0.07-0.42,0.15-0.63,0.22c-2.01,0.71-4.03,1.37-6.08,1.98
				c-1.39,0.42-2.8,0.82-4.21,1.2c-0.71,0.19-1.41,0.37-2.12,0.55c-0.83,0.21-1.66,0.42-2.49,0.61c-0.6,0.14-1.19,0.28-1.78,0.41
				c-2.9,0.65-5.83,1.22-8.77,1.72c-0.68,0.12-1.36,0.23-2.05,0.33c-0.72,0.12-1.45,0.23-2.18,0.33c-1.46,0.21-2.92,0.4-4.38,0.58
				c-0.73,0.08-1.46,0.17-2.19,0.24c-0.52,0.06-1.04,0.11-1.56,0.16c-0.34,0.04-0.68,0.07-1.01,0.1c-1.33,0.13-2.65,0.24-3.98,0.33
				c-3.11,0.23-6.22,0.39-9.32,0.47c-0.43,0.02-0.86,0.03-1.29,0.04c-0.74,0.01-1.48,0.03-2.22,0.03c-0.88,0.01-1.76,0.02-2.64,0.02
				c-2.15,0-4.3-0.03-6.44-0.09c-1.55-0.04-3.09-0.1-4.63-0.17c-0.3-0.01-0.59-0.03-0.89-0.05c-2.54-0.12-5.07-0.29-7.59-0.49
				c-1.72-0.14-3.43-0.3-5.15-0.46l-0.21-0.03c-0.8-0.08-1.61-0.17-2.41-0.25c-1.03-0.12-2.05-0.24-3.07-0.36
				c-0.73-0.09-1.45-0.18-2.18-0.28c-0.83-0.11-1.66-0.22-2.5-0.34c-3.05-0.43-6.09-0.91-9.12-1.44c-0.75-0.13-1.5-0.27-2.25-0.41
				c-1.4-0.25-2.79-0.52-4.17-0.8c-0.66-0.13-1.31-0.26-1.97-0.4c-2.94-0.61-5.86-1.26-8.77-1.97c-0.83-0.19-1.65-0.4-2.47-0.6
				c-0.82-0.21-1.64-0.41-2.47-0.63c-5.98-1.54-11.91-3.28-17.79-5.19c-0.63-0.2-1.26-0.41-1.89-0.62
				c-1.56-0.51-3.11-1.04-4.66-1.58c-1.34-0.47-2.67-0.94-4-1.42c-2.06-0.75-4.11-1.52-6.15-2.3c-1.4-0.54-2.8-1.09-4.19-1.65
				c-1.58-0.63-3.15-1.27-4.73-1.93c-1.37-0.57-2.74-1.15-4.1-1.74c-0.51-0.23-1.03-0.45-1.55-0.68c-1.24-0.54-2.49-1.1-3.73-1.66
				c-1.44-0.65-2.89-1.31-4.33-1.99c-0.21-0.1-0.43-0.2-0.65-0.3c-1.43-0.67-2.86-1.36-4.29-2.05c-1.23-0.59-2.46-1.2-3.68-1.81
				c-1.83-0.91-3.65-1.84-5.47-2.78c-1.52-0.78-3.03-1.58-4.54-2.39c-1.33-0.71-2.66-1.43-3.99-2.16c-0.18-0.1-0.37-0.2-0.55-0.3
				c-1.36-0.75-2.71-1.5-4.05-2.26c-1.02-0.58-2.04-1.16-3.05-1.75c-0.99-0.57-1.98-1.14-2.96-1.72c-0.94-0.55-1.89-1.11-2.82-1.67
				c-1.6-0.96-3.19-1.92-4.78-2.9c-9.65-5.94-19.06-12.25-28.19-18.84c-15.37-11.09-30.28-23.33-43.94-36.71
				c-0.94-0.92-1.87-1.84-2.8-2.77c-4.68-4.7-9.21-9.53-13.53-14.5c-11.41-13.08-21.47-27.1-29.57-42.03
				c-6.04-11.13-10.98-22.77-14.58-34.91c-0.8-2.69-1.53-5.39-2.18-8.12c-0.55-2.24-1.04-4.48-1.49-6.75
				c-1.83-9.29-2.79-18.68-2.94-28.07c-0.05-2.95-0.02-5.9,0.1-8.85c0.71-18.64,4.55-37.17,11.04-54.86
				c10.15-27.68,26.77-53.29,48.03-74.01c43.82-42.72,79.67-62.78,141.25-67.03c0,0,49.87-10.14,80.34,52.67
				c10.89,22.43,17.61,46.97,31.74,67.58c19.29,28.12,49.93,46.39,74.74,69.97c33.64,31.96,56.98,75.69,58.5,121.64
				C476.44,383.11,454.1,430.5,414.16,454.45z"/>
		</g>
		<g style="opacity:0.7;">
			<path style="fill:#FFFFFF;" d="M414.16,454.45c-0.54,0.33-1.09,0.65-1.64,0.97c-0.51,0.29-1.02,0.58-1.53,0.86
				c-0.53,0.3-1.06,0.59-1.6,0.88c-0.54,0.29-1.08,0.57-1.62,0.85c-0.54,0.28-1.08,0.56-1.62,0.83c-0.55,0.27-1.09,0.54-1.64,0.81
				c-0.55,0.26-1.1,0.52-1.65,0.78c-0.55,0.25-1.1,0.5-1.66,0.75c-0.66,0.3-1.33,0.59-2,0.87c-0.67,0.29-1.34,0.57-2.01,0.84
				c-1.35,0.55-2.71,1.08-4.07,1.58c-0.53,0.2-1.06,0.39-1.59,0.58c-0.21,0.07-0.42,0.15-0.63,0.22c-2.01,0.71-4.03,1.36-6.08,1.98
				c-1.39,0.42-2.8,0.82-4.21,1.2c-0.71,0.19-1.41,0.37-2.12,0.55c-0.83,0.21-1.66,0.42-2.49,0.61c-0.6,0.14-1.19,0.28-1.78,0.41
				c-2.9,0.65-5.83,1.22-8.77,1.72c-0.68,0.12-1.36,0.23-2.05,0.33c-0.72,0.12-1.45,0.23-2.18,0.33c-1.46,0.21-2.92,0.4-4.38,0.58
				c-0.73,0.08-1.46,0.17-2.19,0.24c-0.52,0.06-1.04,0.11-1.56,0.16c-0.34,0.04-0.68,0.07-1.01,0.1c-1.33,0.13-2.65,0.24-3.98,0.33
				c-3.11,0.23-6.22,0.39-9.32,0.47c-0.43,0.02-0.86,0.03-1.29,0.04c-0.74,0.01-1.48,0.03-2.22,0.03c-0.88,0.01-1.76,0.02-2.64,0.02
				c-2.15,0-4.3-0.03-6.44-0.09c-1.55-0.04-3.09-0.1-4.63-0.17c-0.3-0.01-0.59-0.03-0.89-0.05c-2.54-0.12-5.07-0.29-7.59-0.49
				c-1.72-0.14-3.43-0.3-5.15-0.46l-0.21-0.03c-0.8-0.08-1.61-0.17-2.41-0.25c-1.03-0.12-2.05-0.24-3.07-0.36
				c-0.73-0.09-1.45-0.18-2.18-0.28c-0.83-0.11-1.66-0.22-2.5-0.34c-3.05-0.43-6.09-0.91-9.12-1.44c-0.75-0.13-1.5-0.27-2.25-0.41
				c-1.4-0.25-2.79-0.52-4.17-0.8c-0.66-0.13-1.31-0.26-1.97-0.4c-2.94-0.61-5.86-1.26-8.77-1.97c-0.83-0.19-1.65-0.4-2.47-0.6
				c-0.82-0.21-1.64-0.41-2.47-0.63c-5.98-1.54-11.91-3.28-17.79-5.19c-0.63-0.2-1.26-0.41-1.89-0.62
				c-1.56-0.51-3.11-1.04-4.66-1.58c-1.34-0.47-2.67-0.94-4-1.42c-2.06-0.75-4.11-1.52-6.15-2.3c-1.4-0.54-2.8-1.09-4.19-1.65
				c-1.58-0.63-3.15-1.27-4.73-1.93c-1.37-0.57-2.74-1.15-4.1-1.74c-0.51-0.23-1.03-0.45-1.55-0.68c-1.24-0.54-2.49-1.1-3.73-1.66
				c-1.44-0.65-2.89-1.31-4.33-1.99c-0.21-0.1-0.43-0.2-0.65-0.3c-1.43-0.67-2.86-1.36-4.29-2.05c-1.23-0.59-2.46-1.2-3.68-1.81
				c-1.83-0.91-3.65-1.84-5.47-2.78c-1.52-0.78-3.03-1.58-4.54-2.39c-1.33-0.71-2.66-1.43-3.99-2.16c-0.18-0.1-0.37-0.2-0.55-0.3
				c-1.36-0.75-2.71-1.5-4.05-2.26c-1.02-0.58-2.04-1.16-3.05-1.75c-0.99-0.57-1.98-1.14-2.96-1.72c-0.94-0.55-1.89-1.11-2.82-1.67
				c-1.6-0.96-3.19-1.92-4.78-2.9c-9.65-5.94-19.06-12.25-28.19-18.84c-15.37-11.09-30.28-23.33-43.94-36.71
				c-0.94-0.92-1.87-1.84-2.8-2.77c-4.68-4.7-9.21-9.53-13.53-14.5c-11.41-13.08-21.47-27.1-29.57-42.03
				c-6.04-11.13-10.98-22.77-14.58-34.91c-0.8-2.69-1.53-5.39-2.18-8.12c-0.55-2.24-1.04-4.48-1.49-6.75
				c-1.83-9.29-2.79-18.68-2.94-28.07c-0.05-2.95-0.02-5.9,0.1-8.85c0.71-18.64,4.55-37.17,11.04-54.86
				c10.15-27.68,26.77-53.29,48.03-74.01c43.82-42.72,79.67-62.78,141.25-67.03c0,0,49.87-10.14,80.34,52.67
				c10.89,22.43,17.61,46.97,31.74,67.58c19.29,28.12,49.93,46.39,74.74,69.97c33.64,31.96,56.98,75.69,58.5,121.64
				C476.44,383.11,454.1,430.5,414.16,454.45z"/>
		</g>
	</g>
</g>
<g id="Graphics">
	<g>
		<g>
			<path style="fill:none;stroke:#263238;stroke-miterlimit:10;" d="M359.426,130.981h25.871c9.544,0,17.281,7.737,17.281,17.281
				l0,0c0,9.544-7.737,17.281-17.281,17.281h-39.629c-9.544,0-17.281-7.737-17.281-17.281l0,0c0-9.544,7.737-17.281,17.281-17.281"
				/>
			<line style="fill:none;stroke:#263238;stroke-miterlimit:10;" x1="351.584" y1="130.981" x2="356.099" y2="130.981"/>
			<g>
				<path style="fill:#263238;" d="M353.029,145.105v1.065h-1.251v-1.132c0-1.065-0.423-1.707-1.387-1.707
					c-0.946,0-1.386,0.642-1.386,1.707v6.255c0,1.065,0.439,1.708,1.386,1.708c0.964,0,1.387-0.643,1.387-1.708v-1.539h1.251v1.471
					c0,1.793-0.846,2.976-2.671,2.976c-1.81,0-2.654-1.183-2.654-2.976v-6.12c0-1.792,0.845-2.976,2.654-2.976
					C352.184,142.129,353.029,143.313,353.029,145.105z"/>
				<path style="fill:#263238;" d="M355.567,151.698l-0.456,2.384h-1.218l2.266-11.834h1.91l2.266,11.834h-1.318l-0.456-2.384
					H355.567z M355.736,150.565h2.638l-1.336-6.831L355.736,150.565z"/>
				<path style="fill:#263238;" d="M362.536,154.082h-1.184v-11.834h1.674l2.739,8.555v-8.555h1.166v11.834h-1.369l-3.026-9.569
					V154.082z"/>
				<path style="fill:#263238;" d="M373.512,145.105v1.065h-1.251v-1.132c0-1.065-0.423-1.707-1.387-1.707
					c-0.946,0-1.386,0.642-1.386,1.707v6.255c0,1.065,0.439,1.708,1.386,1.708c0.964,0,1.387-0.643,1.387-1.708v-1.539h1.251v1.471
					c0,1.793-0.846,2.976-2.671,2.976c-1.81,0-2.654-1.183-2.654-2.976v-6.12c0-1.792,0.845-2.976,2.654-2.976
					C372.666,142.129,373.512,143.313,373.512,145.105z"/>
				<path style="fill:#263238;" d="M378.924,147.488v1.184h-2.891v4.21h3.551v1.2h-4.869v-11.834h4.869v1.2h-3.551v4.04H378.924z"/>
				<path style="fill:#263238;" d="M380.803,154.082v-11.834h1.319v10.634h3.381v1.2H380.803z"/>
			</g>
		</g>
		<g>
			<g>
				<path style="fill:none;stroke:#263238;stroke-miterlimit:10;" d="M260.269,25.218c-1.264-0.34-2.564-0.591-3.892-0.747
					 M253.165,24.284c-15.099,0-27.393,12.283-27.393,27.393c0,15.099,12.293,27.383,27.393,27.383s27.393-12.283,27.393-27.383
					c0-11.499-7.12-21.361-17.179-25.418 M245.42,49.083l17.041,19.894c-2.776,1.494-5.935,2.342-9.296,2.342
					c-10.83,0-19.651-8.811-19.651-19.641c0-4.441,1.484-8.549,3.987-11.839l5.793,6.763L245.42,49.083 M261.17,55.578L243.294,34.7
					c2.897-1.706,6.278-2.675,9.871-2.675c10.83,0,19.651,8.811,19.651,19.651c0,4.683-1.655,8.983-4.401,12.364l-2.369-2.766
					L261.17,55.578z"/>
			</g>
		</g>
		<g>
			<line style="fill:none;stroke:#263238;stroke-miterlimit:10;" x1="137.406" y1="123.743" x2="138.951" y2="122.198"/>
			<g>
				<polyline style="fill:none;stroke:#263238;stroke-miterlimit:10;" points="134.192,126.957 119.484,112.249 107.294,124.44 
					122.001,139.147 107.29,153.858 119.481,166.049 134.192,151.338 148.903,166.049 161.093,153.858 146.382,139.147 
					161.089,124.44 148.899,112.249 140.852,120.297 				"/>
			</g>
		</g>
	</g>
</g>
<g id="Plants">
	<g>
		<g>
			<path style="fill:#92E3A9;" d="M44.239,184.85c0.277-1.962,1.151-4.414,3.133-4.44c1.968-0.026,2.938,2.454,2.832,4.419
				c-0.105,1.965-0.683,4.103,0.338,5.786c2.879-19.364,7.089-39.642,20.097-54.272c1.419-1.596,3.587-3.236,5.482-2.252
				c2.214,1.15,1.598,4.434,0.701,6.762c-7.076,18.366-11.54,37.737-13.216,57.348c5.231-14.48,13.638-28.055,25.552-37.807
				c1.875-1.535,4.197-3.053,6.547-2.463c2.789,0.701,4.045,3.999,4.151,6.872c0.224,6.101-2.673,11.822-5.352,17.308
				c-10.459,21.417-18.677,43.928-24.476,67.046c-1.203,4.795-2.434,9.865-5.864,13.425c-1.572,1.632-4.081,2.892-6.049,1.769
				c-0.947-0.541-1.545-1.521-2.084-2.469c-6.481-11.418-10.267-24.347-11.022-37.452C44.244,211.165,42.361,198.14,44.239,184.85z"
				/>
			<path style="opacity:0.2;fill:#FFFFFF;" d="M44.239,184.85c0.277-1.962,1.151-4.414,3.133-4.44
				c1.968-0.026,2.938,2.454,2.832,4.419c-0.105,1.965-0.683,4.103,0.338,5.786c2.879-19.364,7.089-39.642,20.097-54.272
				c1.419-1.596,3.587-3.236,5.482-2.252c2.214,1.15,1.598,4.434,0.701,6.762c-7.076,18.366-11.54,37.737-13.216,57.348
				c5.231-14.48,13.638-28.055,25.552-37.807c1.875-1.535,4.197-3.053,6.547-2.463c2.789,0.701,4.045,3.999,4.151,6.872
				c0.224,6.101-2.673,11.822-5.352,17.308c-10.459,21.417-18.677,43.928-24.476,67.046c-1.203,4.795-2.434,9.865-5.864,13.425
				c-1.572,1.632-4.081,2.892-6.049,1.769c-0.947-0.541-1.545-1.521-2.084-2.469c-6.481-11.418-10.267-24.347-11.022-37.452
				C44.244,211.165,42.361,198.14,44.239,184.85z"/>
		</g>
		<g>
			<path style="fill:#92E3A9;" d="M22.497,230.236c-0.35-2.166-0.23-5.045,1.857-5.723c2.072-0.673,3.912,1.632,4.445,3.744
				c0.533,2.113,0.624,4.563,2.255,6.008c-3.307-21.423-5.506-44.25,3.452-63.99c0.977-2.153,2.732-4.599,5.06-4.18
				c2.719,0.49,3.145,4.165,2.96,6.922c-1.459,21.745,0.174,43.695,4.835,64.985c0.783-17.03,5.22-34.144,14.621-48.366
				c1.479-2.238,3.437-4.606,6.116-4.752c3.179-0.173,5.59,2.902,6.644,5.906c2.238,6.379,1.051,13.38,0.017,20.06
				c-4.036,26.081-5.343,52.584-3.893,78.935c0.301,5.465,0.662,11.232-1.798,16.122c-1.128,2.242-3.367,4.397-5.818,3.855
				c-1.179-0.261-2.133-1.102-3.014-1.928c-10.6-9.95-18.844-22.382-23.942-35.994C31.135,258.065,24.871,244.908,22.497,230.236z"
				/>
			<path style="opacity:0.2;" d="M22.497,230.236c-0.35-2.166-0.23-5.045,1.857-5.723c2.072-0.673,3.912,1.632,4.445,3.744
				c0.533,2.113,0.624,4.563,2.255,6.008c-3.307-21.423-5.506-44.25,3.452-63.99c0.977-2.153,2.732-4.599,5.06-4.18
				c2.719,0.49,3.145,4.165,2.96,6.922c-1.459,21.745,0.174,43.695,4.835,64.985c0.783-17.03,5.22-34.144,14.621-48.366
				c1.479-2.238,3.437-4.606,6.116-4.752c3.179-0.173,5.59,2.902,6.644,5.906c2.238,6.379,1.051,13.38,0.017,20.06
				c-4.036,26.081-5.343,52.584-3.893,78.935c0.301,5.465,0.662,11.232-1.798,16.122c-1.128,2.242-3.367,4.397-5.818,3.855
				c-1.179-0.261-2.133-1.102-3.014-1.928c-10.6-9.95-18.844-22.382-23.942-35.994C31.135,258.065,24.871,244.908,22.497,230.236z"
				/>
		</g>
		<path style="fill:#92E3A9;" d="M80.59,349.82c-0.08,0.1-0.31,0.14-0.66,0.11c-0.22-0.01-0.47-0.05-0.76-0.11
			c-4.81-4.36-9.37-8.94-13.62-13.76c-1.55-3.58-3.42-6.95-5.56-10.3c-3.74-5.84-8.08-11.25-12.34-16.71
			c-1-1.28-1.99-2.57-2.97-3.86c-1.05-1.39-2.09-2.79-3.1-4.2c-3.34-4.64-6.41-9.5-8.78-14.72c-1.22-2.71-2.26-5.71-1.62-8.61
			c0.43-1.85,1.8-3.55,3.48-4.32c0.36-0.17,0.73-0.29,1.12-0.35c0.3-0.06,0.62-0.08,0.93-0.06h0.01c0.33,0.01,0.64,0.06,0.97,0.16
			c1.88,0.58,3.08,2.37,4.13,4.04c2.64,4.21,5.28,8.42,7.93,12.63c-3.75-9.86-7.51-19.81-9.24-30.21
			c-1.73-10.42-1.3-21.45,3.07-31.05c0.38-0.83,0.88-1.7,1.5-2.38l0.01-0.01c0.01,0,0.02-0.02,0.03-0.03
			c0.64-0.67,1.41-1.14,2.34-1.13c0.44,0,0.84,0.11,1.19,0.29c1.52,0.78,2.31,2.95,2.71,4.78c2.52,11.56,5.03,23.11,7.55,34.66
			c0.42,1.93,0.84,3.86,1.26,5.79c0.15,0.68,0.3,1.36,0.45,2.05c-0.02-0.99-0.04-1.98-0.06-2.97c-0.02-1.61-0.02-3.23,0-4.85
			c0.14-9.45,1.33-18.92,6.75-26.46c1.17-1.64,2.76-3.23,4.57-3.96c0.75-0.31,1.55-0.46,2.37-0.41c0.14,0,0.28,0.02,0.41,0.03
			c2.1,0.31,3.8,1.99,4.69,3.92c0.9,1.92,1.11,4.08,1.3,6.19c0.9,10.64-4.22,18.9-2.28,46.5c0.08,1.21,0.18,2.45,0.29,3.73
			C80.63,316.66,92.2,336.72,80.59,349.82z"/>
		<path style="fill:#92E3A9;" d="M98.27,283.92c-0.26,11.15-6.76,19-7.39,49.72c-0.22,10.87,1.84,21.44,2.58,30.79
			c-4.68-4.7-9.21-9.53-13.53-14.5c-0.22-0.01-0.47-0.05-0.76-0.11c-4.81-4.36-9.37-8.94-13.62-13.76
			c-1.55-3.58-3.42-6.95-5.56-10.3c-3.74-5.84-8.08-11.25-12.34-16.71c0.53-0.41,1.11-0.73,1.73-0.93c0.32-0.11,0.65-0.19,0.98-0.22
			c0.37-0.04,0.74-0.03,1.11,0.03c0.32,0.04,0.64,0.13,0.96,0.27c1.8,0.77,2.8,2.68,3.67,4.45c2.16,4.48,4.34,8.94,6.52,13.42
			c-1.77-6.78-3.54-13.61-4.71-20.51c-0.59-3.49-1.02-6.99-1.22-10.53c-0.47-8.32,0.44-16.87,3.48-24.56
			c0.12-0.31,0.25-0.62,0.39-0.92c0.72-1.74,1.57-3.42,2.53-5.05c0.47-0.79,1.07-1.61,1.76-2.21c0.01-0.01,0.02-0.03,0.03-0.03
			c0.71-0.6,1.53-0.98,2.46-0.87c0.43,0.04,0.81,0.2,1.15,0.42c0.95,0.62,1.51,1.82,1.83,3.11c0.17,0.64,0.27,1.31,0.34,1.93
			c1.26,11.76,2.51,23.52,3.77,35.27c0.28,2.66,0.57,5.32,0.85,7.97c0.23-2.56,0.47-5.17,0.79-7.77c0.5-4.01,1.18-8.01,2.3-11.81
			c1.48-5.08,3.72-9.82,7.27-13.77c1.34-1.5,3.09-2.92,4.96-3.44c0.78-0.23,1.6-0.29,2.4-0.16c0.14,0.02,0.28,0.05,0.4,0.08
			c2.06,0.53,3.57,2.38,4.25,4.4C98.33,279.63,98.32,281.8,98.27,283.92z"/>
		<path style="opacity:0.2;fill:#FFFFFF;" d="M98.27,283.92c-0.26,11.15-6.76,19-7.39,49.72c-0.22,10.87,1.84,21.44,2.58,30.79
			c-4.68-4.7-23.66-23.55-27.91-28.37c-1.55-3.58-3.42-6.95-5.56-10.3c-3.74-5.84-8.08-11.25-12.34-16.71
			c0.53-0.41,1.11-0.73,1.73-0.93c0.32-0.11,0.65-0.19,0.98-0.22c0.37-0.04,0.74-0.03,1.11,0.03c0.32,0.04,0.64,0.13,0.96,0.27
			c1.8,0.77,2.8,2.68,3.67,4.45c2.16,4.48,4.34,8.94,6.52,13.42c-1.77-6.78-3.54-13.61-4.71-20.51c-0.59-3.49-1.02-6.99-1.22-10.53
			c-0.47-8.32,0.44-16.87,3.48-24.56c0.12-0.31,0.25-0.62,0.39-0.92c0.72-1.74,1.57-3.42,2.53-5.05c0.47-0.79,1.07-1.61,1.76-2.21
			c0.01-0.01,0.02-0.03,0.03-0.03c0.71-0.6,1.53-0.98,2.46-0.87c0.43,0.04,0.81,0.2,1.15,0.42c0.95,0.62,1.51,1.82,1.83,3.11
			c0.17,0.64,0.27,1.31,0.34,1.93c1.26,11.76,2.51,23.52,3.77,35.27c0.28,2.66,0.57,5.32,0.85,7.97c0.23-2.56,0.47-5.17,0.79-7.77
			c0.5-4.01,1.18-8.01,2.3-11.81c1.48-5.08,3.72-9.82,7.27-13.77c1.34-1.5,3.09-2.92,4.96-3.44c0.78-0.23,1.6-0.29,2.4-0.16
			c0.14,0.02,0.28,0.05,0.4,0.08c2.06,0.53,3.57,2.38,4.25,4.4C98.33,279.63,98.32,281.8,98.27,283.92z"/>
	</g>
	<g>
		<g>
			<g>
				<g>
					<path style="fill:#92E3A9;" d="M416.938,205.155c0.299,6.598-3.538,15.846-10.257,14.705c-1.098-0.183-2.115-0.607-3.119-1.064
						c1.03-4.85-1.492-10.462,1.223-14.538c1.483-2.247,5.116-6.379,7.725-6.572C416.012,197.426,416.739,201.518,416.938,205.155z"
						/>
					<path style="fill:#92E3A9;" d="M407.957,225.317c-2.607,4.731-5.98,8.392-13.24,7.655c-1.556-0.174-3.199-0.801-4.468-1.777
						c-1.274-0.983-2.228-2.397-2.305-3.995c-0.112-2.128,1.387-3.958,3.246-4.794c1.687-0.772,3.871-1.085,6.083-1.045
						c2.319,0.047,4.661,0.458,6.525,1.153C405.449,223.135,406.69,224.257,407.957,225.317z"/>
				</g>
				<path style="fill:none;stroke:#92E3A9;stroke-miterlimit:10;" d="M403.256,219.055c3.973,4.701,7.961,9.337,11.701,14.132"/>
			</g>
			<g>
				<g>
					<path style="fill:#92E3A9;" d="M439.271,233.635c0.01,3.551-1.355,7.56-3.523,10.298c-2.162,2.746-5.129,4.271-8.339,3.235
						c-1.053-0.34-1.976-0.906-2.934-1.458c0.809-2.311,0.716-4.977,0.724-7.556c-0.026-2.551,0.097-5.051,1.482-7.109
						c1.527-2.236,5.078-6.509,7.89-6.376C438.302,224.87,439.35,229.695,439.271,233.635z"/>
					<path style="fill:#92E3A9;" d="M427.838,252.717c-1.684,2.112-3.548,3.916-5.825,4.958c-2.268,1.041-4.975,1.335-8.431,0.615
						c-1.457-0.307-2.874-1.027-3.896-2.012c-1.058-0.965-1.69-2.22-1.504-3.685c0.247-1.942,1.919-3.61,3.798-4.336
						c1.707-0.664,3.836-0.852,5.982-0.651c2.241,0.208,4.533,0.833,6.218,1.781C425.692,250.215,426.74,251.493,427.838,252.717z"
						/>
				</g>
				<path style="fill:none;stroke:#92E3A9;stroke-miterlimit:10;" d="M414.957,233.187c3.544,4.427,6.752,9.078,9.873,13.786
					c2.994,4.788,5.88,9.649,8.407,14.71"/>
			</g>
			<g>
				<g>
					<path style="fill:#92E3A9;" d="M457.014,266.678c-1.505,6.981-8.171,14.304-14.196,11.094
						c-0.985-0.519-1.815-1.235-2.622-1.971c0.624-1.071,1.056-2.27,1.374-3.51c0.296-1.23,0.502-2.51,0.743-3.768
						c0.482-2.515,1.101-4.945,2.865-6.696c1.937-1.896,6.202-5.382,8.978-4.728C457.739,258.008,457.799,262.917,457.014,266.678z"
						/>
					<path style="fill:#92E3A9;" d="M442.274,283.322c-4.07,3.636-8.448,5.811-15,2.966c-2.814-1.168-5.224-3.98-4.362-6.81
						c0.56-1.874,2.507-3.193,4.505-3.547c1.809-0.322,3.987-0.116,6.061,0.499c2.148,0.651,4.227,1.725,5.768,2.95
						C440.589,280.472,441.472,281.89,442.274,283.322z"/>
				</g>
				<path style="fill:none;stroke:#92E3A9;stroke-miterlimit:10;" d="M433.238,261.683c5.145,10.073,9.35,20.632,12.971,31.393"/>
			</g>
			<g>
				<g>
					<path style="fill:#92E3A9;" d="M469.119,302.142c-1.277,3.563-4.017,6.81-7.07,8.529c-3.047,1.728-6.374,1.958-8.949-0.221
						c-0.867-0.71-1.514-1.58-2.18-2.444c1.645-1.846,2.504-4.35,3.343-6.846c0.816-2.525,1.701-4.736,3.685-6.234
						c2.163-1.597,6.932-4.408,9.543-3.421c1.735,0.682,2.433,2.107,2.587,4.009C470.338,297.848,469.808,300.18,469.119,302.142z"
						/>
					<path style="fill:#92E3A9;" d="M451.324,315.722c-4.783,2.605-9.573,3.493-15.263-0.358c-2.409-1.628-4.199-4.428-2.761-6.654
						c0.953-1.463,3.099-2.422,5.102-2.533c1.816-0.095,3.878,0.34,5.787,1.252c2.007,0.933,3.832,2.354,5.08,3.842
						C450.359,312.595,450.824,314.171,451.324,315.722z"/>
				</g>
				<path style="fill:none;stroke:#92E3A9;stroke-miterlimit:10;" d="M446.209,293.076l2.602,8.114
					c0.827,2.637,1.422,5.359,1.95,8.114c1.037,5.511,1.655,11.126,1.934,16.743"/>
			</g>
			<g>
				<g>
					<path style="fill:#92E3A9;" d="M471.986,341.127c-2.211,2.956-5.745,5.376-9.138,6.19c-3.431,0.828-6.648,0.122-8.558-2.683
						c-0.62-0.92-1.013-1.932-1.419-2.951c4.216-2.633,5.994-8.749,10.584-10.476c2.544-0.912,7.934-2.343,10.13-0.502
						C476.533,333.167,474.404,337.928,471.986,341.127z"/>
					<path style="fill:#92E3A9;" d="M451.136,349.201c-2.641,0.555-5.213,0.721-7.635,0.078c-2.416-0.635-4.71-2.081-6.933-4.629
						c-1.887-2.174-2.823-5.343-0.81-7.327c1.352-1.314,3.689-1.632,5.631-1.099c1.766,0.481,3.588,1.582,5.189,3.018
						c1.63,1.49,3.044,3.362,3.803,5.131C451.093,345.945,451.065,347.575,451.136,349.201z"/>
				</g>
				<path style="fill:none;stroke:#92E3A9;stroke-miterlimit:10;" d="M452.695,326.047c0.544,11.232-0.332,22.573-3.27,33.346"/>
			</g>
			<g>
				<g>
					<path style="fill:#92E3A9;" d="M462.031,380.758c-1.689,1.057-3.563,1.862-5.499,2.286c-1.956,0.42-3.895,0.484-5.622,0.174
						c-3.457-0.615-6.071-2.715-6.637-6.042c-0.169-1.083-0.141-2.17-0.12-3.258c2.453-0.362,4.669-1.833,6.893-3.237
						c2.178-1.417,4.378-2.771,6.839-2.84c2.705-0.024,8.306,0.294,9.717,2.905C469.546,374.252,465.606,378.46,462.031,380.758z"/>
					<path style="fill:#92E3A9;" d="M439.495,379.917c-2.573-0.657-4.948-1.735-6.819-3.382c-1.864-1.624-3.359-3.928-4.42-6.865
						c-0.954-2.576-0.794-5.296,1.67-6.139c1.663-0.538,3.954,0.038,5.58,1.2c1.481,1.053,2.797,2.673,3.773,4.557
						c0.947,1.911,1.581,4.167,1.54,6.037C440.844,377.019,440.146,378.463,439.495,379.917z"/>
				</g>
				<path style="fill:none;stroke:#92E3A9;stroke-miterlimit:10;" d="M449.426,359.393c-1.505,5.366-3.54,10.571-6.199,15.422
					c-2.678,4.838-6.034,9.273-9.966,13.118"/>
			</g>
			<g>
				<g>
					<path style="fill:#92E3A9;" d="M435.459,411.729c-3.321,0.225-7.389-0.538-10.407-2.279c-3.033-1.736-5.003-4.409-4.47-7.754
						c0.174-1.099,0.587-2.117,1.03-3.126c4.858,0.975,10.438-1.695,14.551,0.992c1.095,0.755,2.798,1.906,4.237,3.226
						c1.448,1.311,2.486,2.928,2.458,4.386C443.21,410.616,439.139,411.444,435.459,411.729z"/>
					<path style="fill:#92E3A9;" d="M415.143,402.958c-4.706-2.678-8.181-6.161-7.672-13.219c0.206-2.981,2.228-6.396,5.462-6.63
						c2.133-0.144,3.989,1.319,4.858,3.165c0.793,1.675,1.14,3.851,1.148,6.053c0.01,2.307-0.357,4.646-1.032,6.504
						C417.31,400.474,416.201,401.703,415.143,402.958z"/>
				</g>
				<path style="fill:none;stroke:#92E3A9;stroke-miterlimit:10;" d="M433.261,387.933c-0.941,1.006-2.045,1.837-3.058,2.767
					l-3.302,2.77l-6.51,5.624c-2.156,1.864-4.307,3.71-6.506,5.471c-1.099,0.882-2.207,1.747-3.331,2.586
					c-1.115,0.823-2.265,1.658-3.447,2.578"/>
			</g>
			<g>
				<g>
					<path style="fill:#92E3A9;" d="M410.924,432.505c-1.468,0.068-3.099,0.019-4.805-0.207c-1.702-0.227-3.497-0.645-5.099-1.226
						c-3.174-1.146-5.914-3.226-5.985-6.6c-0.026-1.106,0.216-2.197,0.502-3.294c5.003,0.208,10.158-2.699,14.342-0.014
						c2.291,1.388,6.412,4.962,6.909,7.421c0.17,0.811,0.081,1.429-0.195,1.911c-0.254,0.512-0.7,0.882-1.279,1.153
						C414.134,432.159,412.51,432.398,410.924,432.505z"/>
					<path style="fill:#92E3A9;" d="M389.952,427.024c-2.672-0.634-5.12-1.359-7.057-2.991c-1.94-1.644-3.261-4.121-3.35-8.316
						c-0.088-3.52,2.208-8.204,5.788-9.133c2.323-0.654,4.373,0.691,5.318,2.486c0.858,1.626,1.353,3.911,1.514,6.191
						c0.144,2.373,0.087,4.883-0.301,6.903C391.478,423.921,390.729,425.501,389.952,427.024z"/>
				</g>
				<path style="fill:none;stroke:#92E3A9;stroke-miterlimit:10;" d="M407.107,409.729c-9.386,7.123-17.021,16.434-22.374,26.885"/>
			</g>
			<g>
				<g>
					<path style="fill:#92E3A9;" d="M397.933,455.617c-2.569,1.377-6.104,2.599-9.566,2.909c-3.442,0.292-6.692-0.396-8.228-3.43
						c-0.487-0.988-0.8-2.098-0.938-3.193c4.576-1.95,8.063-6.753,12.97-6.148c2.656,0.264,7.908,1.694,9.422,3.733
						C403.587,452.131,400.676,454.018,397.933,455.617z"/>
					<path style="fill:#92E3A9;" d="M376.633,459.575c-5.292,1.086-10.437,1.703-14.261-5.814c-0.738-1.583-1.123-3.664-0.983-5.674
						c0.216-1.982,0.97-3.879,2.34-5.06c1.901-1.545,4.257-1.217,5.903,0.008c1.498,1.111,2.819,2.934,3.989,4.945
						c1.186,2.097,2.105,4.369,2.668,6.379c0.235,0.887,0.292,1.753,0.316,2.62C376.655,457.85,376.634,458.716,376.633,459.575z"/>
				</g>
				<path style="fill:none;stroke:#92E3A9;stroke-miterlimit:10;" d="M384.733,436.614c-5.354,10.45-8.449,22.094-8.717,33.883"/>
			</g>
		</g>
		<g>
			<g>
				<g>
					<path style="fill:#92E3A9;" d="M411.042,263.396c0.031,1.849-0.342,3.742-1.008,5.44c-0.635,1.692-1.606,3.197-2.74,4.346
						c-2.267,2.302-5.168,3.164-7.94,1.853c-0.939-0.417-1.739-1.003-2.512-1.595c0.931-2.011,0.986-4.477,0.961-6.89
						c-0.034-2.4-0.064-4.815,0.996-6.803c1.226-2.142,3.955-6.517,6.798-6.245c1.924,0.179,3.291,1.673,4.213,3.581
						C410.665,259.019,411.072,261.354,411.042,263.396z"/>
					<path style="fill:#92E3A9;" d="M398.947,280.07c-1.847,1.612-3.812,2.837-6.031,3.402c-2.234,0.588-4.645,0.453-7.473-0.26
						c-2.347-0.687-4.388-2.007-3.619-4.183c0.464-1.414,2.044-2.868,3.728-3.557c1.516-0.62,3.446-0.903,5.29-0.673
						c1.979,0.191,3.893,0.912,5.348,1.877C397.417,277.56,398.229,278.803,398.947,280.07z"/>
				</g>
				<path style="fill:none;stroke:#92E3A9;stroke-miterlimit:10;" d="M396.426,273.656c2.766,5.307,4.555,10.643,5.483,15.307"/>
			</g>
			<g>
				<g>
					<path style="fill:#92E3A9;" d="M420.93,301.124c-1.799,3.041-4.864,5.506-7.904,6.461c-3.064,0.97-6.032,0.5-7.932-1.948
						c-0.611-0.803-1.041-1.702-1.479-2.599c3.669-2.672,4.735-8.479,8.649-10.632c2.198-1.129,6.894-3.167,9.095-1.601
						C424.341,292.926,422.889,297.863,420.93,301.124z"/>
					<path style="fill:#92E3A9;" d="M402.491,309.991c-2.371,0.656-4.697,0.957-6.934,0.505c-2.231-0.445-4.394-1.651-6.559-3.813
						c-0.927-0.907-1.642-2.067-1.927-3.166c-0.3-1.09-0.13-2.168,0.699-3.066c1.138-1.191,3.211-1.668,5.025-1.378
						c1.637,0.262,3.371,1.066,4.936,2.216c1.586,1.198,3.005,2.778,3.796,4.346C402.268,307.019,402.337,308.512,402.491,309.991z"
						/>
				</g>
				<path style="fill:none;stroke:#92E3A9;stroke-miterlimit:10;" d="M401.909,288.964c1.041,4.982,1.408,10.104,1.334,15.203
					c-0.134,5.115-0.725,10.23-1.717,15.279"/>
			</g>
			<g>
				<g>
					<path style="fill:#92E3A9;" d="M415.312,336.927c-2.543,2.078-6.124,3.424-9.306,3.469c-3.189,0.05-5.958-1.157-7.078-4.04
						c-0.376-0.948-0.525-1.938-0.653-2.928c4.277-1.496,7.159-6.506,11.62-7.033c2.441-0.254,7.508-0.343,9.057,1.777
						C421.006,331.015,418.119,334.698,415.312,336.927z"/>
					<path style="fill:#92E3A9;" d="M395.226,339.874c-4.939,0.097-9.263-1.079-12.098-6.871c-1.186-2.451-1.331-5.721,0.93-7.122
						c1.482-0.933,3.615-0.718,5.219,0.186c1.452,0.818,2.853,2.214,3.926,3.846c1.15,1.707,1.966,3.678,2.305,5.439
						C395.792,336.906,395.496,338.394,395.226,339.874z"/>
				</g>
				<path style="fill:none;stroke:#92E3A9;stroke-miterlimit:10;" d="M401.526,319.446c-1.987,10.11-5.416,19.942-9.456,29.518"/>
			</g>
			<g>
				<g>
					<path style="fill:#92E3A9;" d="M403.125,367.819c-2.619,1.421-6.142,2.216-9.288,2.021c-3.14-0.204-5.914-1.437-6.847-4.402
						c-0.3-0.968-0.372-1.981-0.401-2.993c4.383-1.133,7.931-5.487,12.408-5.138c2.443,0.204,7.386,1.169,8.587,3.384
						C409.168,363.648,405.991,366.269,403.125,367.819z"/>
					<path style="fill:#92E3A9;" d="M383.12,368.858c-4.912,0.042-9.49-0.686-11.782-7.497c-0.957-2.867-0.472-6.868,2.087-8.279
						c1.695-0.941,3.784-0.45,5.226,0.717c1.312,1.058,2.448,2.706,3.305,4.538c0.899,1.914,1.499,4.032,1.689,5.866
						C383.813,365.829,383.417,367.334,383.12,368.858z"/>
				</g>
				<path style="fill:none;stroke:#92E3A9;stroke-miterlimit:10;" d="M392.07,348.964c-4.016,9.573-8.831,19.05-11.701,29.432"/>
			</g>
			<g>
				<g>
					<path style="fill:#92E3A9;" d="M395.802,392.445c-1.937,1.563-4.798,3.238-7.722,4.329c-2.88,1.048-5.97,1.395-8.064-0.917
						c-0.704-0.754-1.131-1.671-1.568-2.623c1.84-1.392,3.193-3.322,4.772-4.94c1.552-1.623,3.26-2.927,5.456-3.128
						c2.429-0.263,7.387,0.062,9.1,1.555C400.065,388.654,397.885,390.676,395.802,392.445z"/>
					<path style="fill:#92E3A9;" d="M378.14,400.766c-2.136,1.272-4.198,2.446-6.496,2.586c-2.279,0.131-4.852-0.809-7.469-4.039
						c-2.25-2.708-3.359-7.907-1.292-10.768c1.341-1.91,3.523-2.092,5.225-1.315c1.546,0.703,3.132,2.116,4.543,3.698
						c1.513,1.672,2.842,3.535,3.81,5.22C377.28,397.637,377.651,399.224,378.14,400.766z"/>
				</g>
				<path style="fill:none;stroke:#92E3A9;stroke-miterlimit:10;" d="M380.369,378.396c-1.43,5.184-2.311,10.577-2.289,16.042
					c0.023,5.447-3.26,17.285,1.396,56.103"/>
			</g>
		</g>
	</g>
</g>
<g id="Device">
	<g>
		<g>
			<defs>
				<path id="XMLID_1_" d="M301.509,166.33v109.09l-48.24,55.64c-7.55,8.14-16.72,14.61-26.95,18.92
					c-4.65,1.96-10.19,2.5-10.56,2.85c-2.75,2.62-33.18,46.65-49.37,70.19c-9.65-5.94-19.06-12.25-28.19-18.84
					c-15.37-11.09-30.28-23.33-43.94-36.71l51.68-70.03c8.87-22.02,7.73-34.54,10.06-56.52c2.04-19.3,7.28-35.26,7.81-41.93
					c0.19-2.35,2.1-30.62,2.14-32.98c0.07-3.11,4.04-10.47,4.74-13.5c5.96-25.56,10.72-29.39,17.43-25.52
					c0.99,0.57,9.99,5.6,1.99,34.65c-1.83,6.66,0.74,49.33,0.74,49.33L301.509,166.33z"/>
			</defs>
			<use xlink:href="#XMLID_1_"  style="overflow:visible;fill:#FFFFFF;"/>
			<clipPath id="XMLID_00000130648887069573343460000010670796022290174100_">
				<use xlink:href="#XMLID_1_"  style="overflow:visible;"/>
			</clipPath>
			<g style="clip-path:url(#XMLID_00000130648887069573343460000010670796022290174100_);">
				<g>
					<g>
						<g>
							<path style="fill:#92E3A9;" d="M233.593,320.536c-17.275,6.704-36.771,9.325-54.382,3.561
								c7.316,6.46,14.631,12.919,21.947,19.379c3.512,3.101,7.148,6.275,11.582,7.786c7.53,2.565,15.855-0.162,22.805-4.031
								c18.713-10.419,31.721-28.469,44.103-45.946c2.532-3.574,4.979-9.339-1.388-6.132c-5.116,2.577-9.836,6.656-14.695,9.728
								C254.028,310.907,244.13,316.447,233.593,320.536z"/>
							<g>
								<path style="opacity:0.5;fill:#FFFFFF;" d="M233.593,320.536c-17.275,6.704-36.771,9.325-54.382,3.561
									c7.316,6.46,14.631,12.919,21.947,19.379c3.512,3.101,7.148,6.275,11.582,7.786c7.53,2.565,15.855-0.162,22.805-4.031
									c18.713-10.419,31.721-28.469,44.103-45.946c2.532-3.574,4.979-9.339-1.388-6.132c-5.116,2.577-9.836,6.656-14.695,9.728
									C254.028,310.907,244.13,316.447,233.593,320.536z"/>
							</g>
						</g>
					</g>
				</g>
				<g>
					<g>
						<g>
							<path style="fill:#92E3A9;" d="M182.991,167.229c10.532,14.804,4.821,43.345,1.257,48.949c0,0,7.04,54.571,20.929,75.357
								c7.109-35.626,9.251-72.24,6.344-108.452c-1.39-17.319-7.1-41.188-19.391-53.468
								C192.129,129.614,191.435,157.056,182.991,167.229z"/>
						</g>
						<g style="opacity:0.5;">
							<path style="fill:#FFFFFF;" d="M182.991,167.229c10.532,14.804,4.821,43.345,1.257,48.949c0,0,7.04,54.571,20.929,75.357
								c7.109-35.626,9.251-72.24,6.344-108.452c-1.39-17.319-7.1-41.188-19.391-53.468
								C192.129,129.614,191.435,157.056,182.991,167.229z"/>
						</g>
					</g>
					<g>
						<path style="fill:#92E3A9;" d="M192.047,303.239c1.988,6.384,3.977,12.768,5.965,19.152
							c13.437-1.631,26.995-2.269,40.526-1.909c6.961,0.185,14.011,0.627,20.819-0.837c6.808-1.464,13.501-5.16,16.789-11.299
							c2.176-4.061,2.3-9.873-1.441-12.561c-2.155-1.549-5.005-1.659-7.655-1.513c-8.581,0.471-16.918,2.988-25.451,4.013
							c-8.533,1.026-17.814,0.345-24.679-4.824c-4.519-3.403-7.537-8.403-11.559-12.38c-3.489-3.45-12.66-8.999-16.456-3.516
							C184.832,283.446,190.203,297.317,192.047,303.239z"/>
						<path style="opacity:0.5;fill:#FFFFFF;" d="M192.047,303.239c1.988,6.384,3.977,12.768,5.965,19.152
							c13.437-1.631,26.995-2.269,40.526-1.909c6.961,0.185,14.011,0.627,20.819-0.837c6.808-1.464,13.501-5.16,16.789-11.299
							c2.176-4.061,2.3-9.873-1.441-12.561c-2.155-1.549-5.005-1.659-7.655-1.513c-8.581,0.471-16.918,2.988-25.451,4.013
							c-8.533,1.026-17.814,0.345-24.679-4.824c-4.519-3.403-7.537-8.403-11.559-12.38c-3.489-3.45-12.66-8.999-16.456-3.516
							C184.832,283.446,190.203,297.317,192.047,303.239z"/>
					</g>
					<g>
						<g>
							<g>
								<path style="fill:#92E3A9;" d="M169.66,328.089c-1.573,5.01-4.349,9.542-7.099,14.016
									c-9.3,15.133-18.601,30.265-27.901,45.398c24.633-25.734,35.093-43.401,50.538-59.358
									c-0.758,1.652-11.053-9.461-11.382-9.57C169.17,317.038,170.774,324.54,169.66,328.089z"/>
							</g>
						</g>
						<g style="opacity:0.5;">
							<g>
								<path style="fill:#FFFFFF;" d="M169.66,328.089c-1.573,5.01-4.349,9.542-7.099,14.016
									c-9.3,15.133-18.601,30.265-27.901,45.398c24.633-25.734,35.093-43.401,50.538-59.358
									c-0.758,1.652-11.053-9.461-11.382-9.57C169.17,317.038,170.774,324.54,169.66,328.089z"/>
							</g>
						</g>
					</g>
					<g>
						<path style="fill:#92E3A9;" d="M168.376,372.434c4.793-6.262,9.586-12.525,14.38-18.787
							c4.517-5.901,9.836-12.28,17.215-13.159c-3.501,0.417-6.851-8.57-11.167-7.827c-3.702,0.638-5.372,8.269-6.7,11.231
							C177.785,353.528,173.207,363.046,168.376,372.434z"/>
						<path style="opacity:0.5;fill:#FFFFFF;" d="M168.376,372.434c4.793-6.262,9.586-12.525,14.38-18.787
							c4.517-5.901,9.836-12.28,17.215-13.159c-3.501,0.417-6.851-8.57-11.167-7.827c-3.702,0.638-5.372,8.269-6.7,11.231
							C177.785,353.528,173.207,363.046,168.376,372.434z"/>
					</g>
					<g>
						<path style="fill:#92E3A9;" d="M146.841,429.244c3.741,3.065,7.483,6.129,11.224,9.194
							c23.571-25.966,43.722-55.034,59.769-86.216c-2.561-1.166-4.952-0.53-12.437-6.549
							C203.345,344.024,176.173,393.345,146.841,429.244z"/>
						<path style="opacity:0.5;fill:#FFFFFF;" d="M146.841,429.244c3.741,3.065,7.483,6.129,11.224,9.194
							c23.571-25.966,43.722-55.034,59.769-86.216c-2.561-1.166-4.952-0.53-12.437-6.549
							C203.345,344.024,176.173,393.345,146.841,429.244z"/>
					</g>
				</g>
			</g>
		</g>
		<path style="fill:none;stroke:#263238;stroke-miterlimit:10;" d="M94.259,367.47l51.68-70.03c8.87-22.02,7.73-34.54,10.06-56.52
			c2.04-19.3,7.28-35.26,7.81-41.93c0.19-2.35,2.1-30.62,2.14-32.98c0.07-3.11,4.04-10.47,4.74-13.5
			c5.96-25.56,10.72-29.39,17.43-25.52c0.99,0.57,11.7,5.601,3.7,34.651c-1.83,6.66,0.325,48.806,0.325,48.806l109.365-44.118
			v109.09l-48.24,55.64c-7.55,8.14-16.72,14.61-26.95,18.92c-4.65,1.96-10.19,2.5-10.56,2.85c-2.75,2.62-33.18,46.65-49.37,70.19"/>
		<g>
			<g>
				<g>
					<defs>
						<path id="XMLID_10_" d="M311.046,164.155c1.2-0.559,2.307-0.991,3.302-1.326c4.018-1.352,9.632-1.959,13.126,0.441
							c3.904,2.681,6.155,12.111-2.863,18.662c0,0-6.818,5.414-17.62,9.68c-2.793,1.103-5.983,0.997-8.607-0.463
							c-1.581-0.879-2.921-2.18-2.995-4.074C294.957,176.08,301.072,168.8,311.046,164.155z"/>
					</defs>
					<use xlink:href="#XMLID_10_"  style="overflow:visible;fill:#FFFFFF;"/>
					<clipPath id="XMLID_00000127027099355985299930000014032429462759583138_">
						<use xlink:href="#XMLID_10_"  style="overflow:visible;"/>
					</clipPath>
					<g style="clip-path:url(#XMLID_00000127027099355985299930000014032429462759583138_);">
						<path style="fill:#92E3A9;" d="M307.88,170.568c-1.243,4.232-0.627,8.759-0.001,13.126c0.329,2.293,0.957,4.984,3.111,5.835
							c1.917,0.757,4.021-0.382,5.719-1.549c3.212-2.209,6.309-4.744,8.346-8.068c2.037-3.324,2.88-7.571,1.413-11.183
							C322.683,159.413,310.418,161.927,307.88,170.568z"/>
						<path style="opacity:0.5;fill:#FFFFFF;" d="M307.88,170.568c-1.243,4.232-0.627,8.759-0.001,13.126
							c0.329,2.293,0.957,4.984,3.111,5.835c1.917,0.757,4.021-0.382,5.719-1.549c3.212-2.209,6.309-4.744,8.346-8.068
							c2.037-3.324,2.88-7.571,1.413-11.183C322.683,159.413,310.418,161.927,307.88,170.568z"/>
					</g>
					<use xlink:href="#XMLID_10_"  style="overflow:visible;fill:none;stroke:#263238;stroke-miterlimit:10;"/>
				</g>
				<path style="fill:none;stroke:#263238;stroke-miterlimit:10;" d="M309.629,215.101l-15.919,7.954v-24.354l19.42-9.033
					C313.13,189.668,303.236,203.083,309.629,215.101z"/>
				<path style="fill:none;stroke:#263238;stroke-miterlimit:10;" d="M304.197,224.379l-10.488,5.824v27.266l17.207-6.353
					l2.214-25.054C313.13,226.061,310.449,224.908,304.197,224.379z"/>
				<g>
					<g>
						<g>
							<path style="fill:#263238;" d="M311.686,101.052v195.74c0,8.13-6.6,14.73-14.73,14.73h-89.96c-8.13,0-14.73-6.6-14.73-14.73
								v-195.74c0-8.14,6.6-14.73,14.73-14.73h89.96c1.09,0,2.15,0.12,3.18,0.35C306.736,88.122,311.686,94.002,311.686,101.052z"/>
							<g>
								<path style="fill:#92E3A9;" d="M290.914,305.459h-77.817c-8.134,0-14.729-6.594-14.729-14.729V106.962
									c0-8.134,6.594-14.729,14.729-14.729h77.817c8.134,0,14.729,6.594,14.729,14.729V290.73
									C305.642,298.865,299.048,305.459,290.914,305.459z"/>
							</g>
						</g>
						<path style="fill:#263238;" d="M271.07,104.657H235.4c-5.938,0-10.751-4.813-10.751-10.751v-1.673h57.172v1.673
							C281.821,99.843,277.008,104.657,271.07,104.657z"/>
					</g>
					<circle style="fill:#FFFFFF;stroke:#263238;stroke-miterlimit:10;" cx="234.486" cy="97.971" r="2.766"/>
					<path style="fill:#FFFFFF;stroke:#263238;stroke-miterlimit:10;" d="M260.985,101.287h-15.499
						c-1.322,0-2.394-1.072-2.394-2.394v-0.745c0-1.322,1.072-2.394,2.394-2.394h15.499c1.322,0,2.394,1.072,2.394,2.394v0.745
						C263.379,100.216,262.307,101.287,260.985,101.287z"/>
				</g>
				<g>
					<defs>
						<path id="XMLID_9_" d="M304.828,203.111c-0.59,3.313,0.376,6.805,2.642,9.552c2.266,2.747,5.807,4.719,9.685,5.394
							c2.958,0.514,6.424,0.142,8.338-1.834c1.668-1.722,1.725-4.15,1.702-6.376c-0.055-5.437-1.45-12.883-8.931-14.579
							C312.107,193.871,305.726,198.068,304.828,203.111z"/>
					</defs>
					<use xlink:href="#XMLID_9_"  style="overflow:visible;fill:#FFFFFF;"/>
					<clipPath id="XMLID_00000014602748635435734630000003811714569077080449_">
						<use xlink:href="#XMLID_9_"  style="overflow:visible;"/>
					</clipPath>
					<g style="clip-path:url(#XMLID_00000014602748635435734630000003811714569077080449_);">
						<path style="fill:#92E3A9;" d="M304.819,201.451c-1.112,3.73,0.204,7.927,2.829,10.8c2.625,2.873,6.394,4.52,10.234,5.156
							c0.837-1.614-0.465-3.444-1.443-4.976c-1.728-2.707-2.583-5.962-2.41-9.169c0.078-1.454,0.64-3.197,2.07-3.474
							c1.271-0.247,2.437,0.91,2.818,2.147c0.381,1.238,0.24,2.569,0.394,3.855c0.154,1.286,0.746,2.678,1.964,3.12
							c0.101-2.932,0.065-5.956-1.048-8.67C317.186,192.825,307.036,194.011,304.819,201.451z"/>
						<path style="opacity:0.5;fill:#FFFFFF;" d="M304.819,201.451c-1.112,3.73,0.204,7.927,2.829,10.8
							c2.625,2.873,6.394,4.52,10.234,5.156c0.837-1.614-0.465-3.444-1.443-4.976c-1.728-2.707-2.583-5.962-2.41-9.169
							c0.078-1.454,0.64-3.197,2.07-3.474c1.271-0.247,2.437,0.91,2.818,2.147c0.381,1.238,0.24,2.569,0.394,3.855
							c0.154,1.286,0.746,2.678,1.964,3.12c0.101-2.932,0.065-5.956-1.048-8.67C317.186,192.825,307.036,194.011,304.819,201.451z"
							/>
					</g>
					<use xlink:href="#XMLID_9_"  style="overflow:visible;fill:none;stroke:#263238;stroke-miterlimit:10;"/>
				</g>
				<g>
					<g>
						<defs>
							<path id="XMLID_7_" d="M311.187,265.735l-11.047,8.369c0,0-6.865,11.2,6.438,14.091l11.457-3.286
								c5.493-1.575,9.56-6.47,9.642-12.184c0.076-5.365-3.155-11.05-16.384-12.326L311.187,265.735z"/>
						</defs>
						<use xlink:href="#XMLID_7_"  style="overflow:visible;fill:#FFFFFF;"/>
						<clipPath id="XMLID_00000012469798646666292010000016957233341644042122_">
							<use xlink:href="#XMLID_7_"  style="overflow:visible;"/>
						</clipPath>
						<g style="clip-path:url(#XMLID_00000012469798646666292010000016957233341644042122_);">
							<path style="fill:#92E3A9;" d="M308.67,270.44c0.012,0.924,0.497,1.766,0.937,2.578c2.251,4.15,3.688,8.738,4.207,13.43
								c-0.375-3.39,1.51-7.769,1.409-11.411c-0.101-3.657-0.443-8.409-2.355-11.518C311.767,265.357,308.641,268.162,308.67,270.44
								z"/>
							<path style="opacity:0.5;fill:#FFFFFF;" d="M308.67,270.44c0.012,0.924,0.497,1.766,0.937,2.578
								c2.251,4.15,3.688,8.738,4.207,13.43c-0.375-3.39,1.51-7.769,1.409-11.411c-0.101-3.657-0.443-8.409-2.355-11.518
								C311.767,265.357,308.641,268.162,308.67,270.44z"/>
						</g>
						<use xlink:href="#XMLID_7_"  style="overflow:visible;fill:none;stroke:#263238;stroke-miterlimit:10;"/>
					</g>
					<g>
						<defs>
							<path id="XMLID_8_" d="M307.22,232.959l-10.262,11.066c0,0-5.241,13.31,9.572,13.891l11.573-5.648
								c5.784-2.823,10.092-8.149,11.186-14.491c1.104-6.399-1.323-12.891-16.552-11.692L307.22,232.959z"/>
						</defs>
						<use xlink:href="#XMLID_8_"  style="overflow:visible;fill:#FFFFFF;"/>
						<clipPath id="XMLID_00000134938513311858279070000014645561725879120035_">
							<use xlink:href="#XMLID_8_"  style="overflow:visible;"/>
						</clipPath>
						<g style="clip-path:url(#XMLID_00000134938513311858279070000014645561725879120035_);">
							<path style="fill:#92E3A9;" d="M307.941,256.652c1.01,0.874,2.716,0.242,3.387-0.913c0.67-1.155,0.588-2.585,0.422-3.911
								c-0.254-2.025-2.807-15.672-5.918-14.002C303.97,238.825,307.581,254.197,307.941,256.652z"/>
							<path style="opacity:0.5;fill:#FFFFFF;" d="M307.941,256.652c1.01,0.874,2.716,0.242,3.387-0.913
								c0.67-1.155,0.588-2.585,0.422-3.911c-0.254-2.025-2.807-15.672-5.918-14.002
								C303.97,238.825,307.581,254.197,307.941,256.652z"/>
						</g>
						<use xlink:href="#XMLID_8_"  style="overflow:visible;fill:none;stroke:#263238;stroke-miterlimit:10;"/>
					</g>
					<path style="fill:none;stroke:#263238;stroke-miterlimit:10;" d="M306.497,241.123c-3.165,0.551-5.337,4.298-4.244,7.319
						c1.094,3.021,5.162,4.508,7.946,2.905"/>
					<path style="fill:#FFFFFF;stroke:#263238;stroke-miterlimit:10;" d="M309.916,274.47c-3.163-0.507-6.209,3.041-5.229,6.09
						c0.98,3.05,5.523,4.158,7.798,1.903"/>
				</g>
				<path style="fill:none;stroke:#263238;stroke-miterlimit:10;" d="M178.238,167.22c4.821,0.388,9.769-1.105,13.571-4.095"/>
				<path style="fill:none;stroke:#263238;stroke-miterlimit:10;" d="M189.983,213.238c-3.861,3.165-8.817,4.969-13.809,5.027"/>
				<path style="fill:none;stroke:#263238;stroke-miterlimit:10;" d="M203.949,310.669c-2.183,6.289-6.528,11.805-12.13,15.401"/>
			</g>
			<g>
				<g>
					
						<ellipse transform="matrix(0.6357 -0.772 0.772 0.6357 -40.6502 257.0592)" style="fill:none;stroke:#263238;stroke-miterlimit:10;" cx="252.01" cy="171.596" rx="17.758" ry="17.758"/>
					<g>
						<polygon style="fill:#263238;" points="248.944,181.575 239.992,171.908 242.193,169.87 249.067,177.292 263.026,163.85 
							265.106,166.011 						"/>
					</g>
				</g>
				<g>
					<path style="fill:#263238;" d="M246.442,147.473l-1.775-5.385h0.972l1.307,4.126l1.319-4.126h0.887l-1.787,5.385v3.01h-0.924
						V147.473z"/>
					<path style="fill:#263238;" d="M252.813,145.806v0.839h-2.051v2.986h2.519v0.852h-3.454v-8.395h3.454v0.852h-2.519v2.867
						H252.813z"/>
					<path style="fill:#263238;" d="M257.781,144.102v0.228h-0.888v-0.275c0-0.756-0.288-1.2-0.96-1.2
						c-0.671,0-0.959,0.444-0.959,1.188c0,1.883,2.818,2.063,2.818,4.425c0,1.271-0.611,2.099-1.895,2.099
						c-1.284,0-1.884-0.828-1.884-2.099v-0.48h0.876v0.528c0,0.755,0.311,1.199,0.983,1.199s0.983-0.444,0.983-1.199
						c0-1.871-2.807-2.051-2.807-4.414c0-1.295,0.6-2.099,1.859-2.099C257.182,142.003,257.781,142.831,257.781,144.102z"/>
				</g>
			</g>
			<g>
				<g>
					<circle style="fill:#263238;" cx="252.943" cy="243.163" r="28.108"/>
					<polygon style="fill:#92E3A9;" points="263.31,224.096 271.821,232.607 261.552,242.876 271.824,253.148 263.313,261.659 
						253.041,251.388 242.77,261.659 234.258,253.148 244.529,242.876 234.261,232.607 242.772,224.096 253.041,234.365 					"/>
				</g>
				<g>
					<path style="fill:#263238;" d="M239.452,202.415v1.07h-1.257v-1.138c0-1.07-0.425-1.715-1.393-1.715
						c-0.951,0-1.393,0.646-1.393,1.715v6.284c0,1.07,0.441,1.715,1.393,1.715c0.968,0,1.393-0.646,1.393-1.715v-1.545h1.257v1.477
						c0,1.8-0.849,2.989-2.683,2.989c-1.817,0-2.666-1.189-2.666-2.989v-6.148c0-1.8,0.849-2.989,2.666-2.989
						C238.603,199.426,239.452,200.614,239.452,202.415z"/>
					<path style="fill:#263238;" d="M241.999,209.038l-0.458,2.395h-1.223l2.275-11.888h1.919l2.276,11.888h-1.325l-0.458-2.395
						H241.999z M242.169,207.9h2.649l-1.342-6.861L242.169,207.9z"/>
					<path style="fill:#263238;" d="M248.998,211.433h-1.189v-11.888h1.682l2.751,8.593v-8.593h1.172v11.888h-1.376l-3.04-9.612
						V211.433z"/>
					<path style="fill:#263238;" d="M260.021,202.415v1.07h-1.257v-1.138c0-1.07-0.424-1.715-1.392-1.715
						c-0.95,0-1.393,0.646-1.393,1.715v6.284c0,1.07,0.442,1.715,1.393,1.715c0.969,0,1.392-0.646,1.392-1.715v-1.545h1.257v1.477
						c0,1.8-0.849,2.989-2.683,2.989c-1.817,0-2.667-1.189-2.667-2.989v-6.148c0-1.8,0.85-2.989,2.667-2.989
						C259.173,199.426,260.021,200.614,260.021,202.415z"/>
					<path style="fill:#263238;" d="M265.457,204.809v1.189h-2.904v4.229h3.566v1.206h-4.891v-11.888h4.891v1.206h-3.566v4.059
						H265.457z"/>
					<path style="fill:#263238;" d="M267.343,211.433v-11.888h1.324v10.683h3.397v1.206H267.343z"/>
				</g>
			</g>
			<g>
				<path style="fill:#263238;" d="M236.801,119.334c1.319,0,1.883,0.78,1.883,2.051v1.008c0,1.331-0.624,2.027-1.955,2.027h-0.828
					v3.31h-0.936v-8.396H236.801z M236.729,123.58c0.696,0,1.032-0.324,1.032-1.127v-1.116c0-0.768-0.276-1.151-0.96-1.151h-0.9
					v3.394H236.729z"/>
				<path style="fill:#263238;" d="M241.324,119.334c1.319,0,1.871,0.672,1.871,1.919v0.684c0,0.924-0.324,1.499-1.043,1.727
					c0.767,0.228,1.056,0.852,1.056,1.751v1.308c0,0.372,0.012,0.72,0.168,1.007h-0.947c-0.108-0.24-0.156-0.456-0.156-1.02v-1.319
					c0-0.947-0.444-1.247-1.224-1.247h-0.66v3.586h-0.935v-8.396H241.324z M241.084,123.292c0.744,0,1.188-0.24,1.188-1.151v-0.804
					c0-0.755-0.276-1.151-0.972-1.151h-0.912v3.106H241.084z"/>
				<path style="fill:#263238;" d="M244.109,121.361c0-1.283,0.636-2.111,1.919-2.111c1.295,0,1.931,0.828,1.931,2.111v4.342
					c0,1.271-0.636,2.111-1.931,2.111c-1.283,0-1.919-0.839-1.919-2.111V121.361z M245.033,125.751c0,0.768,0.324,1.211,0.996,1.211
					c0.684,0,0.996-0.444,0.996-1.211v-4.438c0-0.755-0.312-1.211-0.996-1.211c-0.671,0-0.996,0.456-0.996,1.211V125.751z"/>
				<path style="fill:#263238;" d="M252.555,121.361v0.756h-0.887v-0.804c0-0.755-0.3-1.211-0.983-1.211
					c-0.672,0-0.984,0.456-0.984,1.211v4.438c0,0.756,0.312,1.211,0.984,1.211c0.684,0,0.983-0.456,0.983-1.211v-1.091h0.887v1.043
					c0,1.271-0.6,2.111-1.895,2.111c-1.283,0-1.883-0.839-1.883-2.111v-4.342c0-1.271,0.6-2.111,1.883-2.111
					C251.955,119.25,252.555,120.09,252.555,121.361z"/>
				<path style="fill:#263238;" d="M256.396,123.052v0.839h-2.051v2.986h2.519v0.852h-3.454v-8.396h3.454v0.852h-2.519v2.867
					H256.396z"/>
				<path style="fill:#263238;" d="M260.715,123.052v0.839h-2.051v2.986h2.518v0.852h-3.454v-8.396h3.454v0.852h-2.518v2.867
					H260.715z"/>
				<path style="fill:#263238;" d="M264.015,119.334c1.308,0,1.907,0.792,1.907,2.087v4.234c0,1.283-0.6,2.075-1.907,2.075h-1.967
					v-8.396H264.015z M264.003,126.878c0.672,0,0.995-0.42,0.995-1.188v-4.317c0-0.768-0.323-1.188-1.007-1.188h-1.008v6.692
					H264.003z"/>
				<path style="fill:#263238;" d="M272.234,121.373c0,2.027-1.667,2.422-1.667,4.03c0,0.156,0.024,0.312,0.06,0.456h-0.839
					c-0.036-0.144-0.061-0.288-0.061-0.479c0-1.835,1.571-2.111,1.571-4.054c0-0.756-0.275-1.235-0.959-1.235
					c-0.684,0-0.96,0.492-0.96,1.235v0.744h-0.875v-0.684c0-1.271,0.575-2.135,1.858-2.135
					C271.659,119.25,272.234,120.09,272.234,121.373z M270.64,126.566v1.164h-0.888v-1.164H270.64z"/>
			</g>
		</g>
		<path style="opacity:0.2;fill:#FFFFFF;" d="M229.699,86.345l-37.57,48.58v-33.85c0-8.14,6.6-14.73,14.73-14.73H229.699z"/>
		<path style="opacity:0.2;fill:#FFFFFF;" d="M300.014,86.383l-107.87,135.16v-52.3l69.1-83.21h35.59
			C297.924,86.033,298.984,86.153,300.014,86.383z"/>
		<polygon style="opacity:0.2;fill:#FFFFFF;" points="311.686,236.472 311.686,259.112 305.646,266.522 273.886,305.462 
			268.946,311.522 249.356,311.522 254.386,305.462 305.646,243.742 		"/>
	</g>
</g>
<g id="Hand">
	<g>
		<defs>
			<path id="XMLID_2_" d="M401.11,461.45c-23.17,10.36-49.42,13.81-75.01,13.1c-1.55-0.04-3.09-0.1-4.63-0.17l-2.78-10.83
				c-20.42-21.02-57.92-40.26-61.17-69.38c-4.2-37.39-9.95-35.87-9.95-45.17c0-0.33,2.61-4.66,5.75-14.16
				c1.03-3.07,1.54-7.58,2.1-11.28c0.58-3.9,4.06-6.78,8-6.49c2.66,0.18,5.31,1.19,7.27,2.84c3.79,3.21,5.71,8.2,6.18,13.15
				c0.49,4.95-0.29,9.92-1.1,14.83c4.02,7.58,6.29,16.96,7.99,25.37c1.76-7,4.5-28.45-2.7-42.85
				c-12.11-24.26-25.37-47.54-35.81-78.32c-0.82-2.39-1.04-6.38-0.4-8.83c2.43-9.17,11.8-7.72,16.17-2.77
				c1.18,1.3,2.07,2.79,2.8,4.37c5,10.88,15.23,27.49,22.46,37.03l24.92,33l3-2.34c0,0,1.35-41,0.68-41.65
				c-0.67-0.67-4.68-26.89-4.68-26.89s-2.2-4.88-4.88-11.11c-2.65-6.22,0-11.1,0-11.1c4.68-9.56,14.44-5.11,16.44,0
				c2,5.1,8,15.11,8,15.11l11.13,30.44c-0.42,6.88,3.53,40.88,3.53,40.88l4.01-1.83l6.45-19.96l-4.9-20.44
				c0,0-10.66-11.76-8.88-18.66c1.77-6.88,10.88-4.88,10.88-4.88l18.21,21.76h5.35l12.66,16.01c3.42,10.35,5.15,21.12,5.15,31.93
				c0,7.08-0.74,14.21-2.25,21.2l-2.9,13.52v87.32c0,0,8.66,13.99,8.66,15.32C396.86,449.79,398.67,454.79,401.11,461.45z"/>
		</defs>
		<use xlink:href="#XMLID_2_"  style="overflow:visible;fill:#FFFFFF;"/>
		<clipPath id="XMLID_00000058580185678026744220000013319924540240232098_">
			<use xlink:href="#XMLID_2_"  style="overflow:visible;"/>
		</clipPath>
		<g style="clip-path:url(#XMLID_00000058580185678026744220000013319924540240232098_);">
			<g>
				<g>
					<g>
						<path style="fill:#92E3A9;" d="M249.922,344.549c-0.114,0.44-0.196,0.988,0.154,1.277c0.54,0.445,1.261-0.245,1.663-0.817
							c2.645-3.763,7.885-5.465,12.236-3.974c1.663-0.033,2.227-2.561,1.138-3.818c-1.089-1.257-2.937-1.474-4.6-1.48
							c-1.662-0.005-3.441,0.083-4.85-0.799c-1.732-1.084-2.413-3.286-1.971-5.177C252.576,334.711,251.195,339.629,249.922,344.549
							z"/>
					</g>
					<g style="opacity:0.5;">
						<path style="fill:#FFFFFF;" d="M249.922,344.549c-0.114,0.44-0.196,0.988,0.154,1.277c0.54,0.445,1.261-0.245,1.663-0.817
							c2.645-3.763,7.885-5.465,12.236-3.974c1.663-0.033,2.227-2.561,1.138-3.818c-1.089-1.257-2.937-1.474-4.6-1.48
							c-1.662-0.005-3.441,0.083-4.85-0.799c-1.732-1.084-2.413-3.286-1.971-5.177C252.576,334.711,251.195,339.629,249.922,344.549
							z"/>
					</g>
				</g>
			</g>
			<g>
				<path style="fill:#92E3A9;" d="M272.3,379.851c0.247-0.45,0.462-0.914,0.674-1.379
					C272.544,378.802,272.258,379.26,272.3,379.851z"/>
				<path style="fill:#92E3A9;" d="M278.402,348.032c-0.403-5.063,0.318-10.155,0.106-15.229
					c-0.212-5.075-1.538-10.417-5.233-13.901c-5.3-4.995-19.815-2.441-14.947,7.041c1.349,2.627,4.83,3.995,7.535,2.81
					c2.705-1.184,4.037-4.866,2.558-7.422c5.868,8.901,5.343,21.537-1.244,29.921c7.527,6.521,9.917,18.197,5.799,27.22
					c0.879-0.672,2.414-0.763,3.379-0.034c1.437,1.086,1.92,2.983,2.62,4.642c0.7,1.66,2.059,3.389,3.856,3.267
					c2.469-6.049,1.65-12.931,0.047-19.264C281.273,360.749,278.921,354.545,278.402,348.032z"/>
				<path style="fill:#92E3A9;" d="M320.574,262.391c0.042,0.34,0.078,0.682,0.119,1.023
					C320.759,263.08,320.745,262.733,320.574,262.391z"/>
				<path style="fill:#92E3A9;" d="M310.481,306.926c-7.204-14.148-14.411-28.304-22.329-42.065
					c-4.629-8.045-9.534-16-15.707-22.931c-2.736-3.072-10.598-10.183-14.927-5.499c-2.887,3.124,0.911,8.806-2.644,12.186
					c0.815,0.048,4.829-0.39,5.254,0.135c9.022,11.144,13.991,25.5,13.788,39.837c2.9-2.274,6.868,0.883,9.131,3.791
					c13.916,17.883,26.925,36.471,38.962,55.668c-2.332-8.486-2.389-17.486-4.908-25.919
					C315.517,316.825,312.992,311.859,310.481,306.926z"/>
				<g style="opacity:0.5;">
					<path style="fill:#FFFFFF;" d="M272.3,379.851c0.247-0.45,0.462-0.914,0.674-1.379
						C272.544,378.802,272.258,379.26,272.3,379.851z"/>
					<path style="fill:#FFFFFF;" d="M278.402,348.032c-0.403-5.063,0.318-10.155,0.106-15.229
						c-0.212-5.075-1.538-10.417-5.233-13.901c-5.3-4.995-19.815-2.441-14.947,7.041c1.349,2.627,4.83,3.995,7.535,2.81
						c2.705-1.184,4.037-4.866,2.558-7.422c5.868,8.901,5.343,21.537-1.244,29.921c7.527,6.521,9.917,18.197,5.799,27.22
						c0.879-0.672,2.414-0.763,3.379-0.034c1.437,1.086,1.92,2.983,2.62,4.642c0.7,1.66,2.059,3.389,3.856,3.267
						c2.469-6.049,1.65-12.931,0.047-19.264C281.273,360.749,278.921,354.545,278.402,348.032z"/>
					<path style="fill:#FFFFFF;" d="M320.574,262.391c0.042,0.34,0.078,0.682,0.119,1.023
						C320.759,263.08,320.745,262.733,320.574,262.391z"/>
					<path style="fill:#FFFFFF;" d="M310.481,306.926c-7.204-14.148-14.411-28.304-22.329-42.065
						c-4.629-8.045-9.534-16-15.707-22.931c-2.736-3.072-10.598-10.183-14.927-5.499c-2.887,3.124,0.911,8.806-2.644,12.186
						c0.815,0.048,4.829-0.39,5.254,0.135c9.022,11.144,13.991,25.5,13.788,39.837c2.9-2.274,6.868,0.883,9.131,3.791
						c13.916,17.883,26.925,36.471,38.962,55.668c-2.332-8.486-2.389-17.486-4.908-25.919
						C315.517,316.825,312.992,311.859,310.481,306.926z"/>
				</g>
			</g>
			<g>
				<path style="fill:#92E3A9;" d="M317.662,227.227c7.746,10.008,12.185,22.532,12.471,35.184c-4.441,0.59-8.002,5.043-7.601,9.505
					c0.431-2.989,4.824-3.835,7.238-2.021c2.414,1.814,3.237,5.021,3.776,7.992c3.191,17.592,0.777,35.681,2.055,53.515
					c0.482,6.723,6.191,21.419,10.041,52.156c-0.963-22.357-0.036-46.104-0.999-68.461c-0.731-16.969-0.991-30.989-3.749-47.748
					c-1.976-12.004-7.408-25.592-13.275-36.25c-1.405-2.553-4.943-10.374-7.799-11.406
					C315.076,217.981,318.284,224.132,317.662,227.227z"/>
				<path style="opacity:0.5;fill:#FFFFFF;" d="M317.662,227.227c7.746,10.008,12.185,22.532,12.471,35.184
					c-4.441,0.59-8.002,5.043-7.601,9.505c0.431-2.989,4.824-3.835,7.238-2.021c2.414,1.814,3.237,5.021,3.776,7.992
					c3.191,17.592,0.777,35.681,2.055,53.515c0.482,6.723,6.191,21.419,10.041,52.156c-0.963-22.357-0.036-46.104-0.999-68.461
					c-0.731-16.969-0.991-30.989-3.749-47.748c-1.976-12.004-7.408-25.592-13.275-36.25c-1.405-2.553-4.943-10.374-7.799-11.406
					C315.076,217.981,318.284,224.132,317.662,227.227z"/>
				<g>
					<path style="fill:#92E3A9;" d="M343.047,249.619c-0.156-2.438,1.711-4.844,4.112-5.299c2.401-0.454,5.018,1.103,5.763,3.43
						c-2.215-0.116-4.291,1.952-4.184,4.167c1.729-0.679,3.459-1.357,5.189-2.036c0.717,5.129,4.126,9.424,7.506,13.347
						c3.381,3.923,3.645,6.559,4.891,11.586c1.246,5.026,2.512,12.72-2.428,14.274c2.196-0.436,4.301,1.474,4.915,3.627
						c0.614,2.153,0.139,4.447-0.312,6.639c-3.376,16.389-5.328,33.072-5.828,49.798c4.472-8.352,10.117-21.579,12.364-30.782
						c5.447-22.314,3.269-25.788-0.202-40.34c-2.247-9.42-6.58-18.046-12.855-25.449c-2.633-3.107-6.607-7.951-10.46-9.523
						C347.544,241.436,342.12,244.906,343.047,249.619z"/>
					<path style="opacity:0.5;fill:#FFFFFF;" d="M343.047,249.619c-0.156-2.438,1.711-4.844,4.112-5.299
						c2.401-0.454,5.018,1.103,5.763,3.43c-2.215-0.116-4.291,1.952-4.184,4.167c1.729-0.679,3.459-1.357,5.189-2.036
						c0.717,5.129,4.126,9.424,7.506,13.347c3.381,3.923,3.645,6.559,4.891,11.586c1.246,5.026,2.512,12.72-2.428,14.274
						c2.196-0.436,4.301,1.474,4.915,3.627c0.614,2.153,0.139,4.447-0.312,6.639c-3.376,16.389-5.328,33.072-5.828,49.798
						c1.979-3.696,4.188-8.347,6.23-13.181c2.573-6.09,4.881-12.471,6.134-17.602c5.447-22.314,3.269-25.788-0.202-40.34
						c-2.247-9.42-6.58-18.046-12.855-25.449c-2.633-3.107-6.607-7.951-10.46-9.523C347.544,241.436,342.12,244.906,343.047,249.619
						z"/>
					<g>
						<path style="fill:#92E3A9;" d="M377.128,285.043c1.469-1.923,3.015-3.91,5.181-4.988c2.167-1.077,5.143-0.94,6.63,0.97
							c-3.529-3.896-6.634-8.177-9.241-12.742c-0.919-1.61-1.838-3.323-3.391-4.335c-1.295-0.845-3.883-1.155-4.851,0.387
							c-0.871,1.387,0.406,3.876,0.816,5.19C373.888,274.698,375.51,279.87,377.128,285.043z"/>
						<path style="opacity:0.5;fill:#FFFFFF;" d="M377.128,285.043c1.469-1.923,3.015-3.91,5.181-4.988
							c2.167-1.077,5.143-0.94,6.63,0.97c-3.529-3.896-6.634-8.177-9.241-12.742c-0.919-1.61-1.838-3.323-3.391-4.335
							c-1.295-0.845-3.883-1.155-4.851,0.387c-0.871,1.387,0.406,3.876,0.816,5.19C373.888,274.698,375.51,279.87,377.128,285.043z"
							/>
					</g>
				</g>
				<path style="fill:#92E3A9;" d="M375.503,310.312c-1.005,4.691-2.644,9.302-2.742,14.099c-0.12,5.937,2.264,11.885,6.452,16.096
					c-0.585-6.54-0.24-13.162,1.021-19.606c0.421-2.148,0.506-9.636,2.181-11.046c1.675-1.41,4.726-1.318,5.63,0.676
					c-0.092-2.957-3.738-5.163-6.4-3.873c2.146-1.04-0.847-11.979-1.36-14.131c-0.697-2.927-3.799-17.054-7.063-17.823
					c-3.28-0.773-0.313,4.55,0.059,5.553c1.178,3.181,2.049,6.479,2.615,9.823C377.029,296.769,376.925,303.674,375.503,310.312z"/>
				<path style="opacity:0.5;fill:#FFFFFF;" d="M375.503,310.312c-1.005,4.691-2.644,9.302-2.742,14.099
					c-0.12,5.937,2.264,11.885,6.452,16.096c-0.585-6.54-0.24-13.162,1.021-19.606c0.421-2.148,0.506-9.636,2.181-11.046
					c1.675-1.41,4.726-1.318,5.63,0.676c-0.092-2.957-3.738-5.163-6.4-3.873c2.146-1.04-0.847-11.979-1.36-14.131
					c-0.697-2.927-3.799-17.054-7.063-17.823c-3.28-0.773-0.313,4.55,0.059,5.553c1.178,3.181,2.049,6.479,2.615,9.823
					C377.029,296.769,376.925,303.674,375.503,310.312z"/>
			</g>
			<g>
				<g>
					<path style="fill:#92E3A9;" d="M359.376,352.267l0.693,34.852c3.105-3.109,5.437-6.95,6.867-11.103
						c1.095-3.18,5.803-2.326,5.655,1.035c-0.022,0.5-0.049,0.996-0.078,1.487c-0.973,16.416-1.945,32.832-2.918,49.248
						l11.107-41.915c1.968,12.337-3.341,47.109-7.105,59.022c9.201,1.522,12.543,12.989,12.813,22.312
						c0.27,9.323,0.166,20.279,7.664,25.825c7.24-3.189,6.295-1.069,10.013-1.039c4.538,0.037,8.482-2.515,11.899-6.636
						c1.318-1.589,2.483-4.583,2.536-6.646c0.141-5.56-2.833-10.198-5.318-14.906c-18.282-34.641-11.906-78.31-29.915-113.032
						c-0.129-0.249-0.509-0.179-0.542,0.099l0,0c-0.835,7.034-3.565,5.305-7.867-0.322c-0.031-0.041-6.362,4.294-6.392,4.252
						c-3.062-4.136-3.631-9.548-4.095-14.672C360.241,347.19,359.376,352.267,359.376,352.267z"/>
				</g>
				<g style="opacity:0.5;">
					<path style="fill:#FFFFFF;" d="M359.376,352.267l0.693,34.852c3.105-3.109,5.437-6.95,6.867-11.103
						c1.095-3.18,5.803-2.326,5.655,1.035c-0.022,0.5-0.049,0.996-0.078,1.487c-0.973,16.416-1.945,32.832-2.918,49.248
						l11.107-41.915c1.968,12.337-3.341,47.109-7.105,59.022c9.201,1.522,12.543,12.989,12.813,22.312
						c0.27,9.323,0.166,20.279,7.664,25.825c7.24-3.189,6.295-1.069,10.013-1.039c4.538,0.037,8.482-2.515,11.899-6.636
						c1.318-1.589,2.483-4.583,2.536-6.646c0.141-5.56-2.833-10.198-5.318-14.906c-18.282-34.641-11.906-78.31-29.915-113.032
						c-0.129-0.249-0.509-0.179-0.542,0.099l0,0c-0.835,7.034-3.565,5.305-7.867-0.322c-0.031-0.041-6.362,4.294-6.392,4.252
						c-3.062-4.136-3.631-9.548-4.095-14.672C360.241,347.19,359.376,352.267,359.376,352.267z"/>
				</g>
				<g>
					<path style="fill:#92E3A9;" d="M324.217,485.094c0.83-6.112,2.126-18.27-0.048-24.041c-1.589-4.216-4.686-7.756-8.344-10.387
						c-5.423-3.9-12.384-6.135-19.067-6.101c0.217,3.461,4.016,3.634,6.476,4.988c3.62,1.992,6.917,5.205,9.686,8.228
						C316.928,462.156,325.098,478.606,324.217,485.094z"/>
					<path style="opacity:0.5;fill:#FFFFFF;" d="M324.217,485.094c0.83-6.112,2.216-18.304-0.048-24.041
						c-1.746-4.423-4.801-7.908-8.344-10.387c-5.473-3.829-12.384-6.135-19.067-6.101c0.217,3.461,4.016,3.634,6.476,4.988
						c3.62,1.992,6.917,5.205,9.686,8.228C316.928,462.156,325.098,478.606,324.217,485.094z"/>
				</g>
			</g>
		</g>
	</g>
	<g>
		<path style="fill:none;stroke:#263238;stroke-miterlimit:10;" d="M321.47,474.38l-2.78-10.83
			c-20.42-21.02-57.92-40.26-61.17-69.38c-4.2-37.39-9.95-35.87-9.95-45.17c0-0.33,2.61-4.66,5.75-14.16
			c1.03-3.07,1.54-7.58,2.1-11.28c0.58-3.9,4.06-6.78,8-6.49c2.66,0.18,5.31,1.19,7.27,2.84c3.79,3.21,5.71,8.2,6.18,13.15
			c0.49,4.95-0.29,9.92-1.1,14.83c4.02,7.58,6.29,16.96,7.99,25.37c1.76-7,4.5-28.45-2.7-42.85
			c-12.11-24.26-25.37-47.54-35.81-78.32c-0.82-2.39-1.04-6.38-0.4-8.83c2.43-9.17,11.8-7.72,16.17-2.77
			c1.18,1.3,2.07,2.79,2.8,4.37c5,10.88,15.23,27.49,22.46,37.03l24.92,33l3-2.34c0,0,1.35-41,0.68-41.65
			c-0.67-0.67-4.68-26.89-4.68-26.89s-2.2-4.88-4.88-11.11c-2.65-6.22,0-11.1,0-11.1c4.68-9.56,14.44-5.11,16.44,0
			c2,5.1,8,15.11,8,15.11l11.13,30.44c-0.42,6.88,3.53,40.88,3.53,40.88l4.01-1.83l6.45-19.96l-4.9-20.44
			c0,0-10.66-11.76-8.88-18.66c1.77-6.88,10.88-4.88,10.88-4.88l18.21,21.76h5.35l12.66,16.01c3.42,10.35,5.15,21.12,5.15,31.93
			c0,7.08-0.74,14.21-2.25,21.2l-2.9,13.52v87.32c0,0,8.66,13.99,8.66,15.32c0,0.27,1.81,5.27,4.25,11.93"/>
		<g>
			<path style="fill:none;stroke:#263238;stroke-miterlimit:10;" d="M272.123,290.006c3.2-3.558,8.177-5.432,12.929-4.869"/>
			<path style="fill:none;stroke:#263238;stroke-miterlimit:10;" d="M263.819,248.251c-3.636-0.632-7.514,0.276-10.493,2.455
				c0,0-5.245-5.242-4.127-9.519"/>
			<path style="fill:none;stroke:#263238;stroke-miterlimit:10;" d="M378.676,340.893c-2.893-4.47-5.699-10.609-4.924-15.878
				c1.518-10.313,6.218-22.187,4.103-32.394c-1.352-6.521-2.703-13.043-4.054-19.564"/>
			<path style="fill:none;stroke:#263238;stroke-miterlimit:10;" d="M322.488,230.309c-2.013,1.444-4.85,1.638-7.04,0.48
				c-2.19-1.158-3.628-3.612-3.568-6.088"/>
			<path style="fill:none;stroke:#263238;stroke-miterlimit:10;" d="M314.747,293.899c-0.234,3.523,0.234,20.077,0,23.599"/>
			<path style="fill:none;stroke:#263238;stroke-miterlimit:10;" d="M335.503,324.121c4.58,5.024,3.909,17.071,0.673,23.701"/>
			<path style="fill:none;stroke:#263238;stroke-miterlimit:10;" d="M300.121,338.125c2.475,4.825,6.279,8.962,10.779,11.721"/>
			<path style="fill:none;stroke:#263238;stroke-miterlimit:10;" d="M364.867,331.523c0.759,5.045-0.377,10.352-3.134,14.644"/>
			<path style="fill:none;stroke:#263238;stroke-miterlimit:10;" d="M384.36,347.21c0.223,3.962-0.938,7.988-3.236,11.222"/>
			<path style="fill:none;stroke:#263238;stroke-miterlimit:10;" d="M357.644,250.336c-2.379-1.151-5.452-0.658-7.352,1.178
				c-0.866-1.143-1.731-2.285-2.597-3.427"/>
			<path style="fill:none;stroke:#263238;stroke-miterlimit:10;" d="M336.083,265.76c-3.473-2.21-8.56-1.346-11.109,1.886"/>
			<path style="fill:none;stroke:#263238;stroke-miterlimit:10;" d="M377.336,293.899c-2.175-3.757-6.704-6.005-11.012-5.463"/>
			<path style="fill:none;stroke:#263238;stroke-miterlimit:10;" d="M391.427,314c-0.056-2.717-2.289-5.225-4.981-5.593"/>
			<g>
				<path style="fill:none;stroke:#263238;stroke-miterlimit:10;" d="M283.643,374.938c-1.499,0.66-2.998,1.32-4.497,1.98"/>
				<path style="fill:none;stroke:#263238;stroke-miterlimit:10;" d="M284.795,378.546c-0.733,3.461-0.749,7.073-0.048,10.54"/>
				<path style="fill:none;stroke:#263238;stroke-miterlimit:10;" d="M255.307,343.676c-2.413,1.913-4.491,4.25-6.109,6.87"/>
				<path style="fill:none;stroke:#263238;stroke-miterlimit:10;" d="M256.408,329.965c3.293-2.354,8.542,2.911,11.57,0.224
					c1.206-1.071,1.297-2.925,1.017-4.513c-0.28-1.588-0.838-3.179-0.601-4.774"/>
			</g>
		</g>
		<path style="fill:none;stroke:#263238;stroke-miterlimit:10;" d="M326.44,379.432c0.093,1.678,0.147,3.357,0.161,5.037"/>
		<path style="fill:none;stroke:#263238;stroke-miterlimit:10;" d="M321.722,350.693c2.111,7.191,3.273,14.637,4.154,22.176"/>
		<path style="fill:none;stroke:#263238;stroke-miterlimit:10;" d="M315.928,336.326c1.692,3.784,3.196,7.618,4.538,11.495"/>
	</g>
</g>
</svg>
